<svg width="41" height="43" viewBox="0 0 41 43" fill="none" xmlns="http://www.w3.org/2000/svg">
<path d="M10.5 18.5L0 22.5V11C0 5 7 1.16667 10.5 0H30C35.6 0 39.3333 7.33333 40.5 11V27C40.5 29.8 39.1667 32.8333 38.5 34L30 33V18.5C30 12.9 27 11.1667 25.5 11H15C11 11 10.3333 16 10.5 18.5Z" fill="#F28111" stroke-linejoin="round" stroke-linecap="round"/>
<path d="M10 21.5L0 25.5C0 32 4.5 38.5 8.5 41C12.5 43.5 27.5 42.5 30 42C32.5 41.5 34 39 37 36C30 36 20.5 36 15 33C10.0924 30.3231 9.66667 24.1962 10 21.5Z" fill="#F28111" stroke-linejoin="round" stroke-linecap="round"/>
</svg>